<?xml version="1.0" encoding="UTF-8"?>
<svg id="Layer_1" data-name="Layer 1" xmlns="http://www.w3.org/2000/svg" version="1.1" viewBox="0 0 2000 2000">
  <defs>
    <style>
      .cls-1 {
        fill: #003a5d;
        fill-rule: evenodd;
        stroke-width: 0px;
      }
    </style>
  </defs>
  <path class="cls-1" d="M1926.87,1020.75c-17.99-34.6-36.55-68.93-54.79-103.4-93.16-176.2-186.25-352.45-279.47-528.61-24.18-45.72-36.76-49.9-82.18-27.52-30.24,14.9-60.34,30.12-90.5,45.21q-76.74,38.37-43.56,120.12c-9.92,0-17.25.55-24.48-.09-87.2-7.76-174.46-14.88-261.53-23.88-56.07-5.81-113.07-5.15-158.21,28.96-40.25,30.42-81.54,33.78-127.04,31.96-17.92-.71-36.07-1.74-53.78.24-37.64,4.24-69.28-7.8-101.09-27.12-21.56-13.12-23.84-23.36-12.32-44.48,18.75-34.4,12.73-49.71-22.83-67.95-44.11-22.63-88.44-44.86-132.9-66.73-34.49-16.96-51.3-11.72-69.49,22.1-29.47,54.77-58.3,109.9-87.39,164.9-83.87,158.42-167.81,316.81-251.56,475.3-17.6,33.31-14.64,52.58,12.99,67.11,49.45,25.98,99.57,50.78,150.02,74.76,24.42,11.62,44.78,5.51,58.58-19.63,5.14-9.37,5.85-23.06,19.83-26.07q33.33,69.06-2.01,133.45c-44.67,81.43,1.07,178.91,94.29,197.59,19.03,3.81,27.69,8.87,31.72,29.19,15.11,76.18,79.59,119.45,156.88,106.42,15.41-2.59,23.36-1.63,31.9,13.95,31.87,58,80.4,80.85,145.14,69.49,16.66-2.93,23.34,1.87,31.58,16.14,47.48,82.18,145.26,96.67,214.67,31.4,13.65-12.84,21.93-11.83,34.21-1.76,7.31,6.02,15.46,11,23.41,16.19,86.27,56.42,189.08,13.93,208.88-87.43,3.15-16.14,9.54-19.05,23.75-21.65,66.53-12.2,103.21-49.02,115.69-116.59,2.81-15.18,8-20.06,23.04-22.96,64.95-12.56,104.86-50.89,113.78-118.02,1.57-11.9,5.96-17.41,18.86-20.54,94.01-22.74,127.37-73.03,114.53-170.38-.81-6.24-3.15-12.69,2.87-17.45,6.62-5.27,11.47-.67,16.4,3.53,18.05,15.39,36.8,11.7,55.94,2.08,44.28-22.27,88.8-44.05,132.92-66.64,36.38-18.62,41.76-35.5,23.24-71.16ZM316.89,933.42c-1.93,8.44-6.07,16.03-11.75,22.16-8.9,9.58-21.61,15.58-35.73,15.58-26.92,0-48.74-21.82-48.74-48.74s21.82-48.74,48.74-48.74,48.74,21.82,48.74,48.74c0,3.79-.43,7.46-1.26,11ZM399.36,1361.17c-27.46-18.95-32.65-52.2-11.4-83.64,28.36-41.95,57.47-83.4,87.13-124.45,16.29-22.57,38.6-32.73,66.38-23.34,26.06,8.81,38.2,28.23,38.91,55.18.53,13.61-5.4,24.69-12.77,35.2-28.44,40.6-56.52,81.51-85.52,121.69-21.59,29.92-56.44,37.51-82.74,19.35ZM622.88,1476.49c-23.06,32.19-56.52,40.17-84.43,21.11-27.84-18.99-32.04-53.37-9.47-86,29.26-42.33,58.73-84.56,89.21-126.01,16.14-21.93,39.38-27.8,64.71-18.71,24.18,8.68,36.23,27.41,36.82,53.16.75,14.58-5.44,26.47-13.5,37.9-27.84,39.46-55.22,79.26-83.34,118.55ZM850.82,1485.8c-17.9,28.45-38.13,55.49-57.87,82.76-11.27,15.58-27.44,22.29-46.53,22.19-43.3-.04-70.89-44.9-48.66-82.72,18.05-30.74,39.25-59.89,61.43-87.86,19.79-24.95,51.34-27.57,76.29-9.86,24.54,17.41,32.09,48.85,15.33,75.49ZM925.86,1675c-31.17,1.57-57.85-22.25-59.52-53.18-1.93-35.71,41-85.16,74.7-86.06,30.35-.81,56.8,24.5,57.87,55.32,1.2,35.17-39.76,82.22-73.05,83.92ZM1607.62,1244.96c-19.51,21.82-48.14,26.15-74.49,8.51-52.6-35.19-104.09-72.04-156.04-108.2-17.32-12.05-34.32-24.59-52.09-35.93-20.6-13.14-41.28-12.65-55.33,8.75-13.48,20.51-9.11,40.47,11.6,55.04,56.09,39.44,112.43,78.54,168.54,117.98,37.47,26.35,46.54,58.52,25.21,87.95-20.92,28.87-55.07,30.65-91.91,4.91-53.61-37.47-107.11-75.09-160.97-112.23-26.94-18.6-50.42-17.4-64.31,2.04-14.55,20.34-8.36,41.86,18.71,61.03,46.49,32.94,93.56,65.03,139.93,98.11,33.31,23.75,41.48,55.99,22.62,84.01-19.34,28.74-54.38,32.24-88.93,8.55-27.85-19.1-55.37-38.65-83.15-57.83-29.88-20.66-51.49-20.51-66.75.11-15.35,20.75-8.4,42.18,20.71,62.91,18.91,13.46,38.41,26.11,56.95,40.06,31.42,23.64,40.19,57.81,21.95,82.05-18.93,25.14-52.97,27.52-84.99,6.92-25.16-16.2-42.93-29.79-39.01-68.68,6.52-64.8-44.07-118.66-112.92-131.23-19.42-3.54-25.17-10.86-28.36-28.89-10.14-57.34-52.49-98.98-110.02-106.94-19.49-2.72-25.87-10.36-29.34-28.6-11.47-60.17-51.72-98.56-112.28-109.12-12.54-2.19-23.58-1.05-25.92-19.55-7.55-59.59-42.08-99.29-99.67-113.58-58.5-14.55-108.24,3.96-144.99,53.29-1.84,2.44-4.63,4.14-9.97,8.79-13.63-32.95-26.04-62.87-38.33-92.83-3.32-8.08,2.04-14.19,5.4-20.54,68.95-130.56,137.95-261.1,207.06-391.61,5.3-10.01,10.61-24.26,25.21-12.05,52.84,44.14,115.21,46.09,179.15,42.42,2.66-.15,5.44,1.78,13.25,4.54-17.83,17.06-33.42,31.92-48.96,46.86-46.02,44.29-60.83,119.61-35.07,178.19,38.2,86.9,167.53,99.16,234.3,21.39,25.51-29.73,51.21-58.71,83.68-81.24,28.29-19.63,52.5-21.03,82.78.97,156.13,113.54,313.89,224.83,470.9,337.17,11.04,7.89,22.75,16.29,30.46,27.09,16.7,23.45,14.83,47.69-4.59,69.39ZM1656.81,1085.11c-17.34,14.58-26.6,1.74-37.85-6.26-157.22-111.91-314.86-223.22-471.12-336.42-50.52-36.61-99.35-35.24-150.3-5.46-41.5,24.26-75.51,57.36-104.71,95.21-13.74,17.79-30.67,28.4-52.71,31.34-41.41,5.53-64.65-14.9-64.45-60.3,1.39-20.11,7.37-40.94,26.6-57.98,44.22-39.12,86.9-79.97,130.41-119.87,41.39-37.96,89.58-51.31,145.71-45.36,102.74,10.84,205.73,19.83,308.79,27.14,27.97,1.99,42.4,12.56,55.11,37.12,69.79,134.78,141.75,268.45,212.33,402.83,5.85,11.12,20.81,22.4,2.19,38.02ZM1822.89,1045.55c-64.29,32.86-63.28,33.51-96.67-29.88-88.35-167.73-176.62-335.5-266.41-502.46-13.93-25.89-11.1-38.22,16.38-47.71,16.74-5.77,32.09-15.59,47.33-23.22,14.4,1.91,15.86,14.19,20.45,22.83,76.2,143.18,152.08,286.54,228.02,429.85,20.21,38.16,39.74,76.71,60.92,114.33,9.6,17,9.99,26.05-10.03,36.27Z"/>
</svg>