<?xml version="1.0" encoding="UTF-8"?>
<svg id="Layer_1" data-name="Layer 1" xmlns="http://www.w3.org/2000/svg" version="1.1" viewBox="0 0 4400 4000">
  <defs>
    <style>
      .cls-1 {
        fill: #003a5d;
        stroke-width: 0px;
      }
    </style>
  </defs>
  <rect class="cls-1" x="1686.39" y="1661.08" width="330.67" height="330.6"/>
  <rect class="cls-1" x="2347.59" y="1661.08" width="330.54" height="330.6"/>
  <rect class="cls-1" x="3008.8" y="1661.08" width="330.54" height="330.6"/>
  <rect class="cls-1" x="1686.39" y="2322.22" width="330.67" height="330.67"/>
  <rect class="cls-1" x="1025.32" y="2322.22" width="330.54" height="330.67"/>
  <rect class="cls-1" x="2347.59" y="2322.22" width="330.54" height="330.67"/>
  <rect class="cls-1" x="3008.8" y="2322.22" width="330.54" height="330.67"/>
  <rect class="cls-1" x="1686.39" y="2983.42" width="330.67" height="330.54"/>
  <rect class="cls-1" x="2347.59" y="2983.42" width="330.54" height="330.54"/>
  <rect class="cls-1" x="1025.32" y="2983.42" width="330.54" height="330.54"/>
  <path class="cls-1" d="M1357.56,727.4c72.43,0,131.22-58.65,131.22-131.09V218.02c0-72.43-58.78-131.15-131.22-131.15s-131.09,58.72-131.09,131.15v378.3c0,72.43,58.65,131.09,131.09,131.09Z"/>
  <path class="cls-1" d="M3007.88,727.4c72.43,0,131.09-58.65,131.09-131.09V218.02c0-72.43-58.65-131.15-131.09-131.15s-131.09,58.72-131.09,131.15v378.3c0,72.43,58.66,131.09,131.09,131.09Z"/>
  <path class="cls-1" d="M3277.4,407.17h-33.46v189.15c0,130.17-105.89,236.06-236.06,236.06s-236.06-105.89-236.06-236.06v-189.15h-1178.2v189.15c0,130.17-105.89,236.06-236.06,236.06s-236.06-105.89-236.06-236.06v-189.15h-33.46c-361.5,0-655.56,294.12-655.56,655.69v2189.3c0,361.5,294.06,655.69,655.56,655.69h2189.36c361.5,0,655.69-294.19,655.69-655.69V1062.86c0-361.57-294.19-655.69-655.69-655.69ZM3670.79,3252.16c0,216.9-176.49,393.38-393.39,393.38H1088.04c-216.9,0-393.39-176.49-393.39-393.38v-1921.68h2976.13v1921.68Z"/>
</svg>