<?xml version="1.0" encoding="UTF-8"?>
<svg id="Layer_2" data-name="Layer 2" xmlns="http://www.w3.org/2000/svg" version="1.1" viewBox="0 0 3000 3000">
  <defs>
    <style>
      .cls-1 {
        fill: #003a5d;
        stroke-width: 0px;
      }
    </style>
  </defs>
  <path class="cls-1" d="M2889.69,2614.01l-756.8-756.79c-32.25-32.25-80.47-38.73-119.16-19.49l-226.71-226.71c292.27-378.89,264.83-926.57-82.35-1273.74-376.99-376.99-990.41-376.99-1367.41,0-376.99,376.98-376.99,990.4,0,1367.39,347.18,347.19,894.86,374.63,1273.75,82.36l226.72,226.71c-19.22,38.69-12.75,86.91,19.49,119.15l756.8,756.81c40.4,40.39,105.89,40.39,146.27,0l129.4-129.39c40.4-40.41,40.4-105.88,0-146.29ZM1596.36,1596.36c-317.27,317.26-833.51,317.26-1150.78,0-317.28-317.28-317.28-833.51,0-1150.78,317.27-317.27,833.51-317.27,1150.78,0,317.27,317.27,317.27,833.5,0,1150.78Z"/>
  <path class="cls-1" d="M1504.28,908.5l-79.04-85.95c-21.62-23.62-67.09-19.45-81.5,7.36l-86.9,161.91-93.05-190.22c-17.05-34.77-79.81-30.7-90,5.44l-102.72,352.78-100.61-490.14c-8.2-40.35-79.86-42.97-92.4-3.14l-116.02,369.28-38.14-103.24c-4.86-13.07-23.32-24.09-40.37-24.09h-281.02v75.5h243.87l76.7,199.45c14.65,36.27,79.22,34.21,90.7-2.39l103.13-306.39,100.84,497.59c8.26,40.68,81.15,42.97,92.64,2.25l121.58-430.72,78.87,161.3c15.41,31.44,70.72,32.1,87.36,1.12l99.67-185.67,43.89,47.99c8.85,9.7,23.09,15.46,38.09,15.46h259.57v-75.5h-235.14Z"/>
</svg>